<svg id="logo-35" width="100%" height="100%" viewBox="0 0 50 47" fill="none" xmlns="http://www.w3.org/2000/svg"><path d="M25.0001 0L50 14.375V43.125L25.0001 57.5L0 43.125V14.375L25.0001 0Z" fill="#191A23"></path><path d="M25.0001 8.21429L41.6667 18.0357V37.6786L25.0001 47.5L8.33342 37.6786V18.0357L25.0001 8.21429Z" fill="#191A23"></path><path d="M25.0001 13.9286L35.4167 19.8214V31.6071L25.0001 37.5L14.5834 31.6071V19.8214L25.0001 13.9286Z" fill="#191A23"></path><path d="M25.0001 18.2143L31.2501 21.6071V28.3928L25.0001 31.7857L18.7501 28.3928V21.6071L25.0001 18.2143Z" fill="#191A23"></path><path d="M25.0001 21.6071L28.1251 23.3928V26.6071L25.0001 28.3928L21.8751 26.6071V23.3928L25.0001 21.6071Z" fill="#191A23"></path><path d="M25.0001 13.9286L35.4167 19.8214V31.6071L25.0001 37.5L14.5834 31.6071V19.8214L25.0001 13.9286Z" stroke="#40414D" stroke-width="0.714286"></path><path d="M25.0001 8.21429L41.6667 18.0357V37.6786L25.0001 47.5L8.33342 37.6786V18.0357L25.0001 8.21429Z" stroke="#40414D" stroke-width="0.714286"></path><path d="M25.0001 0L50 14.375V43.125L25.0001 57.5L0 43.125V14.375L25.0001 0Z" stroke="#40414D" stroke-width="0.714286"></path></svg>